<svg width="24" height="24" viewBox="0 0 24 24" fill="none" xmlns="http://www.w3.org/2000/svg">
<path d="M9.75502 1.52C9.44502 1.52 9.14702 1.644 8.92702 1.863L4.03702 6.752C3.81773 6.97145 3.52026 7.09483 3.21002 7.095H1.17002C1.01381 7.09495 0.859182 7.12617 0.715239 7.18684C0.571297 7.2475 0.44096 7.33638 0.331914 7.44822C0.222868 7.56006 0.137321 7.69261 0.080319 7.83804C0.0233168 7.98347 -0.00398674 8.13884 1.84946e-05 8.295L0.0520185 10.279C0.0598435 10.5841 0.186557 10.874 0.405132 11.087C0.623707 11.3 0.916844 11.4191 1.22202 11.419H3.59202C3.90202 11.419 4.19902 11.295 4.41902 11.075L9.34902 6.145C9.56902 5.925 9.86602 5.802 10.176 5.802H13.05C13.2037 5.802 13.3558 5.77173 13.4978 5.71294C13.6397 5.65414 13.7687 5.56796 13.8773 5.45931C13.986 5.35067 14.0722 5.22169 14.131 5.07974C14.1898 4.93779 14.22 4.78564 14.22 4.632V2.69C14.22 2.37969 14.0968 2.0821 13.8773 1.86268C13.6579 1.64326 13.3603 1.52 13.05 1.52H9.75502ZM19.535 4.023C19.225 4.023 18.927 4.146 18.707 4.366L13.818 9.255C13.5986 9.47409 13.3011 9.59709 12.991 9.597H10.235C9.92502 9.597 9.62702 9.721 9.40802 9.941L4.15002 15.197C3.93073 15.4165 3.63326 15.5398 3.32302 15.54H1.32002C1.00972 15.54 0.712121 15.6633 0.492704 15.8827C0.273286 16.1021 0.150018 16.3997 0.150018 16.71V18.706C0.150018 19.352 0.674019 19.876 1.32002 19.876H3.33702C3.63902 19.876 3.92902 19.76 4.14702 19.551L9.68202 14.247C9.89984 14.0379 10.1901 13.9211 10.492 13.921H13.372C13.682 13.921 13.979 13.798 14.199 13.579L19.129 8.649C19.349 8.429 19.646 8.305 19.956 8.305H22.829C22.9828 8.30513 23.135 8.27496 23.2771 8.21622C23.4191 8.15748 23.5482 8.07132 23.657 7.96267C23.7657 7.85401 23.852 7.72498 23.9109 7.58297C23.9697 7.44095 24 7.28873 24 7.135V5.193C24 4.88269 23.8768 4.5851 23.6573 4.36568C23.4379 4.14626 23.1403 4.023 22.83 4.023H19.535ZM19.535 12.582C19.225 12.582 18.927 12.705 18.707 12.925L13.818 17.814C13.5987 18.0335 13.3013 18.1568 12.991 18.157H10.951C10.7948 18.1569 10.6402 18.1882 10.4962 18.2488C10.3523 18.3095 10.222 18.3984 10.1129 18.5102C10.0039 18.6221 9.91832 18.7546 9.86132 18.9C9.80432 19.0455 9.77701 19.2008 9.78102 19.357L9.83302 21.341C9.84084 21.6461 9.96756 21.936 10.1861 22.149C10.4047 22.362 10.6978 22.4811 11.003 22.481H13.373C13.683 22.481 13.98 22.357 14.2 22.138L19.13 17.208C19.35 16.988 19.647 16.865 19.957 16.865H22.83C23.1403 16.865 23.4379 16.7417 23.6573 16.5223C23.8768 16.3029 24 16.0053 24 15.695V13.752C24 13.4417 23.8768 13.1441 23.6573 12.9247C23.4379 12.7053 23.1403 12.582 22.83 12.582H19.535Z" fill="black"/>
</svg>
